<?xml version="1.0" standalone="no"?>
<!DOCTYPE svg PUBLIC "-//W3C//DTD SVG 20010904//EN"
 "http://www.w3.org/TR/2001/REC-SVG-20010904/DTD/svg10.dtd">
<svg version="1.0" xmlns="http://www.w3.org/2000/svg"
 width="1454.000000pt" height="1345.000000pt" viewBox="0 0 1454.000000 1345.000000"
 preserveAspectRatio="xMidYMid meet">

<g transform="translate(0.000000,1345.000000) scale(0.100000,-0.100000)"
fill="#000000" stroke="none">
<path d="M3232 10909 c-216 -4 -395 -9 -398 -11 -2 -3 24 -61 57 -129 34 -68
103 -209 154 -314 51 -104 155 -316 230 -470 76 -154 175 -356 220 -450 45
-93 138 -282 205 -420 67 -137 160 -326 205 -420 89 -183 233 -479 445 -910
73 -148 167 -342 210 -430 43 -88 135 -277 205 -420 70 -143 169 -345 220
-450 175 -360 313 -641 430 -880 110 -226 169 -345 427 -875 58 -118 154 -314
213 -435 234 -479 340 -696 410 -840 143 -296 224 -456 253 -497 36 -53 114
-126 173 -164 56 -35 174 -84 204 -84 13 0 27 -5 30 -10 8 -12 196 -13 227 -1
13 5 43 15 68 22 66 19 159 66 210 108 99 79 111 98 465 701 59 102 143 244
185 315 42 72 126 213 185 315 60 102 143 244 185 315 42 72 126 213 185 315
60 102 150 255 200 340 50 85 134 227 185 315 51 88 135 230 185 315 50 85
132 225 182 310 192 327 299 510 374 635 87 146 119 203 119 210 0 3 -524 5
-1165 5 -641 0 -1165 3 -1165 6 0 5 66 133 190 369 26 50 82 158 125 240 43
83 95 182 115 220 21 39 72 138 115 220 43 83 81 154 85 159 5 5 6 15 3 22 -4
12 109 14 726 14 779 0 801 1 991 51 313 84 624 304 802 570 93 140 138 232
208 434 36 103 76 214 130 365 21 58 53 146 70 195 18 50 43 119 56 155 12 36
44 124 69 195 79 222 107 299 115 320 9 22 62 171 78 220 6 17 26 75 46 129
20 55 36 103 36 108 0 4 -615 8 -1367 8 l-1368 -1 -40 -82 c-61 -123 -347
-680 -355 -692 -4 -5 -69 -131 -145 -280 -76 -148 -172 -337 -215 -420 -43
-82 -117 -226 -165 -320 -48 -93 -96 -185 -107 -202 l-20 -33 -716 0 c-394 0
-722 4 -728 8 -6 4 -73 129 -149 277 -76 149 -159 311 -185 360 -26 50 -112
216 -191 370 -78 154 -189 370 -246 480 -56 110 -140 275 -185 367 l-83 166
-910 0 c-500 -1 -1087 -5 -1303 -9z m1765 -731 c6 -7 61 -112 123 -233 136
-266 267 -521 365 -710 40 -77 138 -268 218 -425 80 -157 186 -364 236 -460
l90 -175 765 -3 c499 -1 766 -6 766 -12 0 -6 -6 -10 -13 -10 -7 0 -67 -109
-133 -242 -67 -134 -203 -407 -304 -608 -183 -364 -188 -376 -206 -515 -8 -67
20 -202 59 -285 60 -125 215 -253 354 -293 25 -7 288 -13 765 -16 l728 -6 -39
-65 c-148 -250 -271 -459 -491 -835 -139 -236 -305 -520 -370 -630 -65 -110
-193 -328 -285 -485 -291 -496 -377 -640 -382 -640 -2 0 -53 101 -113 225 -61
124 -160 327 -221 453 -61 125 -149 304 -194 397 -45 94 -140 287 -210 430
-119 243 -178 364 -425 870 -54 110 -155 317 -225 460 -70 143 -169 346 -220
450 -200 410 -297 609 -405 830 -200 408 -350 716 -440 900 -48 99 -152 311
-230 470 -78 160 -171 349 -205 420 -35 72 -129 264 -209 429 -80 164 -146
302 -146 307 0 5 141 10 313 12 171 1 394 3 493 5 136 1 184 -1 191 -10z
m5683 8 c0 -3 -5 -17 -11 -33 -6 -15 -29 -77 -51 -138 -38 -106 -61 -169 -126
-355 -127 -359 -134 -376 -198 -466 -118 -168 -296 -269 -518 -293 -124 -14
-993 -15 -1001 -1 -6 10 206 433 533 1060 42 80 82 159 90 175 8 17 19 36 25
43 7 9 146 12 633 12 343 0 624 -2 624 -4z"/>
</g>
</svg>
