<?xml version="1.0" standalone="no"?>
<!DOCTYPE svg PUBLIC "-//W3C//DTD SVG 20010904//EN"
 "http://www.w3.org/TR/2001/REC-SVG-20010904/DTD/svg10.dtd">
<svg version="1.0" xmlns="http://www.w3.org/2000/svg"
 width="800.000000pt" height="450.000000pt" viewBox="0 0 800.000000 450.000000"
 preserveAspectRatio="xMidYMid meet">

<g transform="translate(0.000000,450.000000) scale(0.100000,-0.100000)"
fill="#000000" stroke="none">
<path d="M1728 3867 c-3 -19 -2 -25 4 -19 6 6 8 18 6 28 -3 14 -5 12 -10 -9z"/>
<path d="M1826 3318 c-13 -18 -16 -53 -16 -173 l0 -150 32 -15 c40 -20 68 -73
68 -129 0 -33 3 -41 13 -34 6 6 34 7 62 4 l50 -6 6 -50 c5 -37 3 -54 -8 -65
-12 -11 -17 -12 -20 -2 -3 7 -22 12 -44 12 -39 0 -39 0 -39 40 0 22 -4 40 -10
40 -6 0 -10 -107 -10 -300 l0 -301 74 7 c52 5 75 3 81 -5 12 -21 -5 -26 -81
-23 -57 2 -74 0 -74 -11 0 -10 20 -14 76 -15 81 -1 94 -6 77 -23 -6 -6 -40 -9
-82 -7 -51 2 -71 0 -71 -9 0 -9 23 -12 75 -11 42 0 79 -2 82 -6 16 -16 -21
-28 -86 -27 l-71 0 0 -82 c0 -95 -18 -135 -69 -157 l-31 -12 0 -359 0 -359
175 0 175 0 0 738 c-1 405 -5 814 -11 907 -5 94 -12 264 -15 380 -3 147 -8
212 -17 217 -7 4 -71 8 -144 8 -125 0 -133 -1 -147 -22z m184 -206 c14 -12 22
-29 22 -48 0 -16 7 -37 15 -46 22 -25 6 -44 -19 -21 -11 10 -31 16 -45 15 -55
-8 -86 70 -41 102 29 20 41 20 68 -2z m22 -627 c-2 -5 -10 -9 -18 -8 -13 1
-15 -9 -12 -50 3 -46 1 -52 -17 -52 -17 0 -19 6 -16 52 2 45 0 52 -13 47 -11
-4 -16 -1 -16 10 0 14 9 17 48 14 26 -2 46 -7 44 -13z m-52 -747 c0 -21 -30
-24 -48 -6 -13 13 -16 50 -6 61 10 10 54 -36 54 -55z m88 -327 c2 -41 -1 -57
-12 -63 -9 -5 -16 -16 -16 -24 0 -12 -12 -14 -57 -12 l-58 3 -3 50 c-2 33 1
53 10 60 8 5 17 18 21 28 6 15 16 18 59 15 l53 -3 3 -54z"/>
<path d="M1961 3090 c-19 -11 -9 -45 14 -45 13 0 21 8 23 21 3 23 -17 37 -37
24z"/>
<path d="M5376 3069 c-25 -30 -34 -59 -18 -59 5 0 19 14 31 31 17 23 29 30 47
26 14 -2 25 1 28 10 9 22 8 23 -28 23 -26 0 -41 -7 -60 -31z"/>
<path d="M5647 2854 c-3 -3 -3 -13 0 -21 5 -12 7 -12 14 -1 15 23 4 40 -14 22z"/>
<path d="M5597 2819 c-14 -8 -16 -14 -6 -25 12 -15 40 -19 38 -6 -2 28 -15 40
-32 31z"/>
<path d="M1232 2795 c-73 -21 -101 -37 -166 -95 -60 -56 -110 -143 -125 -220
-8 -39 -9 -41 -11 -15 -2 24 -4 20 -12 -19 -19 -102 36 -262 117 -334 l30 -27
-26 30 c-14 17 -29 37 -35 45 -9 15 -3 10 55 -55 75 -82 230 -130 348 -106
133 26 239 109 296 229 30 63 32 74 32 177 0 100 -3 115 -28 167 -68 139 -196
226 -343 234 -51 3 -97 -1 -132 -11z m203 -11 c114 -29 203 -103 257 -211 24
-49 31 -79 35 -145 9 -138 -39 -252 -136 -326 l-44 -33 -29 51 -29 51 29 23
c39 34 82 117 89 174 8 72 -19 153 -68 207 -152 165 -411 90 -457 -132 l-8
-38 -58 -3 -58 -3 4 58 c8 108 86 232 183 288 49 29 135 53 190 54 23 1 68 -6
100 -15z m-20 -153 c51 -23 121 -102 135 -150 24 -88 1 -192 -57 -253 -14 -14
-24 -30 -23 -35 3 -12 -90 -42 -135 -42 -49 -1 -130 36 -167 75 -60 65 -83
166 -57 258 14 51 92 132 144 151 55 19 112 18 160 -4z m-488 -233 c-3 -7 -5
-2 -5 12 0 14 2 19 5 13 2 -7 2 -19 0 -25z m10 -80 c-3 -7 -5 -2 -5 12 0 14 2
19 5 13 2 -7 2 -19 0 -25z m22 -63 c0 -5 -4 -3 -9 5 -5 8 -9 22 -9 30 0 16 17
-16 18 -35z m20 -45 c11 -24 11 -24 -3 -6 -9 11 -16 24 -16 30 0 12 5 7 19
-24z m536 10 c-10 -11 -23 -20 -29 -20 -6 1 0 10 13 20 30 26 39 26 16 0z"/>
<path d="M1960 2765 c0 -20 5 -25 25 -25 20 0 25 5 25 25 0 20 -5 25 -25 25
-20 0 -25 -5 -25 -25z"/>
<path d="M5625 2733 c7 -42 27 -69 44 -59 16 10 13 46 -4 46 -8 0 -17 11 -21
25 -10 41 -27 30 -19 -12z"/>
<path d="M3291 2730 c-1 -18 49 -173 55 -167 2 2 -9 44 -25 93 -16 49 -29 82
-30 74z"/>
<path d="M3891 2686 c12 -10 60 -16 54 -6 -3 5 -18 10 -32 10 -15 0 -24 -2
-22 -4z"/>
<path d="M3718 2623 c29 -2 74 -2 100 0 26 2 2 3 -53 3 -55 0 -76 -1 -47 -3z"/>
<path d="M5397 2542 c-28 -26 -67 -58 -85 -71 -18 -13 -32 -27 -30 -31 2 -4
89 -96 193 -204 186 -192 191 -196 231 -196 56 0 146 60 250 166 89 92 142
178 130 210 -8 18 -8 18 -19 0 -50 -79 -126 -144 -176 -151 -38 -4 -90 33
-276 197 -71 63 -138 117 -148 121 -12 5 -32 -7 -70 -41z"/>
<path d="M931 2514 c0 -11 3 -14 6 -6 3 7 2 16 -1 19 -3 4 -6 -2 -5 -13z"/>
<path d="M3920 2496 c0 -2 9 -6 20 -9 11 -3 20 -1 20 4 0 5 -9 9 -20 9 -11 0
-20 -2 -20 -4z"/>
<path d="M3291 2383 l106 -4 17 -57 c10 -31 23 -63 28 -69 7 -9 42 -12 117
-11 l106 2 -109 5 -109 6 -20 68 -20 67 -111 -2 -111 -2 106 -3z"/>
<path d="M3650 2382 c0 -24 29 -69 64 -100 44 -39 126 -59 176 -43 l35 11 -37
-6 c-83 -11 -182 39 -217 109 -12 23 -21 36 -21 29z"/>
<path d="M3986 2248 c3 -4 44 -7 92 -7 96 2 86 6 -25 11 -39 2 -69 0 -67 -4z"/>
<path d="M2973 2243 c32 -2 81 -2 110 0 29 2 3 3 -58 3 -60 0 -84 -1 -52 -3z"/>
<path d="M4491 1929 c-13 -5 -21 -12 -18 -15 3 -3 18 1 34 10 31 17 21 20 -16
5z"/>
<path d="M4301 1894 c0 -11 3 -14 6 -6 3 7 2 16 -1 19 -3 4 -6 -2 -5 -13z"/>
<path d="M4312 1850 c0 -14 2 -19 5 -12 2 6 2 18 0 25 -3 6 -5 1 -5 -13z"/>
<path d="M4397 1863 c-4 -3 2 -13 14 -21 26 -18 35 -10 11 11 -10 10 -22 14
-25 10z"/>
<path d="M6830 1850 c6 -11 15 -20 20 -20 17 0 11 15 -11 28 -19 12 -19 11 -9
-8z"/>
<path d="M7055 1694 l0 -139 -110 -1 c-157 -2 -163 -2 -145 -14 8 -5 70 -10
137 -10 70 0 124 -4 128 -10 10 -16 65 -12 71 5 4 8 12 15 20 15 24 0 44 43
44 93 0 38 -3 47 -12 39 -7 -6 -31 -12 -53 -14 l-40 -3 -16 75 c-24 114 -25
113 -24 -36z"/>
<path d="M4335 1680 l-690 -5 435 -5 c239 -2 387 -6 328 -7 -60 -2 -108 -7
-108 -12 0 -12 -96 -16 -334 -13 -143 1 -224 6 -233 13 -10 9 -13 8 -13 -1 0
-9 -3 -10 -14 -1 -7 6 -21 9 -30 5 -9 -3 -23 0 -32 7 -12 10 -18 9 -32 -5 -15
-15 -17 -54 -20 -389 -3 -399 -2 -408 47 -425 37 -13 2804 5 2853 19 21 5 42
17 47 27 5 9 10 135 12 280 l4 264 -28 20 c-44 32 -57 68 -57 158 l0 80 -110
0 -110 0 0 -349 c0 -306 -2 -352 -16 -365 -14 -14 -62 -16 -417 -14 l-402 3
-3 363 -2 362 -193 -2 c-105 -2 -502 -5 -882 -8z m-302 -177 c-34 -2 -93 -2
-130 0 -37 2 -9 3 62 3 72 0 102 -1 68 -3z m1125 -34 l3 -27 -553 -7 c-304 -3
-614 -5 -688 -3 l-135 3 -3 27 -3 28 323 2 c178 2 487 3 688 3 l365 0 3 -26z
m2 -219 l0 -30 -675 -1 c-371 -1 -681 -2 -687 -3 -7 -1 -14 11 -16 26 -3 21 2
27 20 31 13 2 323 5 691 6 l667 1 0 -30z m-2 -211 l3 -27 -613 -7 c-337 -4
-647 -5 -688 -3 -72 3 -75 4 -75 28 l0 25 450 5 c248 3 556 5 685 5 l235 0 3
-26z"/>
<path d="M5565 1653 c-44 -43 -36 -112 17 -139 57 -30 118 10 118 77 0 46 -13
57 -28 24 -14 -31 -58 -43 -91 -24 -36 21 -36 36 1 59 20 12 27 20 16 20 -9 0
-24 -7 -33 -17z"/>
<path d="M6770 1610 c0 -5 5 -10 10 -10 6 0 10 5 10 10 0 6 -4 10 -10 10 -5 0
-10 -4 -10 -10z"/>
<path d="M5903 1528 c-11 -13 -35 -45 -53 -72 l-33 -48 -24 31 c-13 17 -31 31
-38 31 -11 0 -245 -310 -245 -325 0 -7 365 -6 552 2 l157 6 -126 186 c-116
172 -146 211 -163 211 -4 0 -16 -10 -27 -22z"/>
<path d="M6721 1394 c0 -11 3 -14 6 -6 3 7 2 16 -1 19 -3 4 -6 -2 -5 -13z"/>
<path d="M2877 1363 c20 -15 59 -17 67 -4 3 5 -14 11 -39 13 -39 3 -43 1 -28
-9z"/>
<path d="M1352 745 c-32 -30 -52 -55 -47 -55 6 0 35 25 65 55 71 71 55 72 -18
0z"/>
<path d="M1392 745 c-32 -30 -52 -55 -47 -55 6 0 35 25 64 55 69 71 56 71 -17
0z"/>
<path d="M1434 748 c-30 -28 -52 -54 -49 -57 3 -3 31 20 61 52 68 71 61 74
-12 5z"/>
<path d="M1470 745 c-30 -30 -50 -55 -44 -55 5 0 33 25 61 55 29 30 49 55 45
55 -4 0 -32 -25 -62 -55z"/>
<path d="M1510 745 c-30 -30 -50 -55 -44 -55 5 0 33 25 61 55 29 30 49 55 45
55 -4 0 -32 -25 -62 -55z"/>
<path d="M1550 745 c-30 -30 -50 -55 -45 -55 5 0 32 25 60 55 28 30 49 55 45
55 -3 0 -30 -25 -60 -55z"/>
<path d="M1590 745 c-30 -30 -50 -55 -45 -55 5 0 32 25 60 55 28 30 49 55 45
55 -3 0 -30 -25 -60 -55z"/>
<path d="M1630 745 c-30 -30 -50 -55 -45 -55 5 0 32 25 60 55 28 30 49 55 45
55 -3 0 -30 -25 -60 -55z"/>
<path d="M1671 746 l-52 -53 46 0 c44 0 51 4 99 53 29 30 48 54 43 54 -5 0
-31 -24 -57 -52 -27 -29 -51 -50 -55 -46 -4 3 13 27 38 52 24 25 40 46 35 46
-5 0 -31 -24 -58 -52 -26 -29 -51 -50 -55 -46 -4 3 13 27 38 52 24 25 41 46
37 46 -3 0 -29 -24 -59 -54z"/>
<path d="M1784 744 c-28 -30 -47 -54 -43 -54 4 0 30 24 58 52 27 29 52 50 55
47 4 -3 -13 -27 -37 -52 -24 -26 -40 -47 -36 -47 4 0 30 24 58 52 61 65 77 60
17 -5 -57 -63 -45 -60 21 5 64 63 79 60 19 -5 -57 -63 -45 -60 21 5 64 64 78
60 19 -5 -60 -64 -43 -60 22 6 l53 54 -88 0 -88 0 -51 -53z"/>
<path d="M1983 745 c-28 -30 -48 -55 -44 -55 4 0 31 25 61 55 30 30 50 55 44
55 -6 0 -34 -25 -61 -55z"/>
<path d="M2020 745 c-30 -30 -50 -55 -44 -55 5 0 34 25 64 55 30 30 50 55 44
55 -5 0 -34 -25 -64 -55z"/>
<path d="M2060 745 c-30 -30 -49 -55 -44 -55 6 0 33 23 59 51 26 28 49 48 52
45 3 -2 -14 -25 -37 -50 -24 -25 -38 -46 -33 -46 22 0 89 91 76 104 -11 11
-18 7 -73 -49z"/>
<path d="M955 776 c-3 -10 -1 -56 3 -79 1 -5 7 -5 12 -2 6 3 10 0 10 -7 0 -7
25 12 55 42 30 29 57 52 60 49 2 -3 -13 -23 -35 -44 -22 -22 -40 -44 -40 -49
0 -6 24 13 53 42 29 29 57 52 62 52 5 0 -11 -20 -35 -45 -24 -24 -42 -47 -39
-50 3 -2 29 19 58 49 l52 53 -106 0 c-69 0 -108 -4 -110 -11z m21 -13 c-6 -15
-4 -15 14 2 11 10 22 16 25 13 3 -3 -4 -13 -15 -23 -11 -10 -20 -23 -20 -29 0
-5 16 5 35 24 19 18 37 31 40 29 2 -3 -13 -23 -35 -44 -22 -22 -40 -33 -40
-26 0 7 -4 10 -9 7 -5 -3 -7 9 -6 27 3 37 3 37 11 37 3 0 3 -8 0 -17z"/>
<path d="M1145 740 c-27 -27 -47 -52 -44 -55 3 -2 30 20 59 50 30 30 50 55 44
55 -5 0 -32 -22 -59 -50z"/>
<path d="M1185 740 c-27 -27 -45 -50 -39 -50 5 0 32 23 59 50 27 28 45 50 39
50 -5 0 -32 -22 -59 -50z"/>
<path d="M1225 740 c-27 -27 -45 -50 -39 -50 5 0 32 23 59 50 27 28 45 50 39
50 -5 0 -32 -22 -59 -50z"/>
<path d="M1265 740 c-27 -27 -45 -50 -39 -50 5 0 32 23 59 50 27 28 45 50 39
50 -5 0 -32 -22 -59 -50z"/>
<path d="M1305 740 c-27 -27 -45 -50 -39 -50 5 0 32 23 59 50 27 28 45 50 39
50 -5 0 -32 -22 -59 -50z"/>
<path d="M2104 708 l-19 -23 23 19 c21 18 27 26 19 26 -2 0 -12 -10 -23 -22z"/>
</g>
</svg>
